<?xml version="1.0" encoding="utf-8"?>
<!-- Generator: Adobe Illustrator 18.1.1, SVG Export Plug-In . SVG Version: 6.00 Build 0)  -->
<svg version="1.1" id="レイヤー_1" xmlns="http://www.w3.org/2000/svg" xmlns:xlink="http://www.w3.org/1999/xlink" x="0px"
	 y="0px" viewBox="0 0 595.3 841.9" enable-background="new 0 0 595.3 841.9" xml:space="preserve">
<g>
	<path d="M45.2,100.7c-0.2-0.9-0.8-1.8-1.4-2.8c-0.8-1-1.2-2.1-1.4-3c-0.3-1.1-0.5-2.2-0.8-3.4c-0.2-1.1-0.4-2.3-0.5-3.6l0.8-4.2
		L41,80.8l0.7-1.4l-1.4-13l0.4-5.4l-13.4-0.8l-6.9,1.1L14,60.7L5.8,41H2.9v-2L3.4,38h1.1l-0.1-1.3c2.7-1,5.3-2,8.2-2.8
		c2.7-0.9,5.7-1.6,8.9-2.1c3-0.5,6.1-1,9.1-1.5c2.8-0.5,5.8-0.9,8.7-1.2l0.7-2.9l-2.6-6.9l0.5-1h0.7v-1l-0.8-5.2l1.3-0.7l0.5-1.8
		l7.8-0.1l3.2,0.8v2.1l2,0.5l2,7.2c-0.9,0.7-1.3,1.4-1.2,2.2c0.1,0.9,0.1,1.6,0.1,2.4c0,0.9,0,1.7,0,2.5s0,1.5,0,2.2
		c2.9,0,5.8,0.2,8.7,0.7c2.8,0.4,5.7,0.7,8.7,0.8c2.9,0.1,5.9,0.3,8.6,0.4s5.2,1.1,7.3,3l1.5,3.4c-0.5,1.6-0.8,3.4-0.7,4.9
		c0.1,1.6-0.2,3.3-0.9,4.6c-0.7,1.5-1.3,3-2.1,4.4c-0.9,1.4-1.3,3-1.3,4.8h1.3v1.4l-1.7,1.8h0.7v1l-4.5,0.5V62h-0.8v0.5h-2.5l-3.3-1
		v-1.5l-7.5,0.1v-0.5h-0.7v-0.3h-1.3v0.9h-0.5v-0.9h1.1l-0.1-0.9h-2.4l-2,1.3l-1.7-0.3l-7.1,1v5l1.2,16.3l-0.9,1.4l1.1,5.8L51,92.7
		l0.9,2.2l-3,5c-0.5,0-0.9,0-1.1,0c-0.2,0-0.4,0.1-0.7,0.2c-0.3,0.1-0.4,0.2-0.4,0.4c0,0.1,0,0.4,0,0.9L45.2,100.7z M40.6,52.2
		l-0.9-1.8l0.8-4.5l-0.9-1.4l0.5-10.2h-5.8l-19.7,5.1v1l2.6,2v1h1.2l2.8,8.7c1.3,0.5,2.6,1,3.9,1.5c1.3,0.5,2.7,0.8,4.5,0.7
		c1.6,0,3.2,0,4.7,0s3,0,4.9,0l0.7-0.5L40.6,52.2z M36.8,59.5l-0.5,1h0.5l0.7-0.4L36.8,59.5z M74.8,44.1l-3.9-8.3l-17.3-1.7
		c-1.6,1-2.4,2.4-2.3,4c0,1.8-0.1,3.5-0.2,5.1c-0.2,1.6-0.3,3.3-0.3,4.9c0,1.6,0.1,3.2,0.2,4.8l20.3,0.3l0.7-0.5L74.8,44.1z
		 M53.5,59l-1.8-0.4l0.2,0.9l0.5,0.3l0.7-0.3L53.5,59z M69.6,59.3l-0.7,0.9h0.7l0.5-0.7L69.6,59.3z M81,59.9l-0.7,0.5l0.7,0.4
		l0.7-0.4L81,59.9z"/>
	<path d="M123.1,96.1c-0.7-1-1-2.1-1.2-3.2c-0.2-1-0.3-2.2-0.3-3.6c0-1.4,0-2.7,0-3.9c0.8-2.2,1.5-4.6,2.2-7.3c0.7-2.6,1-5.2,1-7.9
		c0-2.6,0-5.4,0-8.3c0-2.8,0.2-5.7,0.7-8.3l-2.6-2.7l-12.5,19.2h-1.3l-2.4,5.3l-2.5,0.5c-0.4-0.3-0.9-0.9-1.2-1.5
		c-0.4-0.7-0.7-1.4-0.7-2.1c0-0.8,0-1.4,0-2.1c0-0.5,0-1.4,0-2.3l1.2-4.6l-0.7-1.3h1.3l2.5,0.7l2.9-2.1c1-1.6,2-3.2,3-4.6
		c1-1.3,2-2.7,2.7-4.4c0.8-1.5,1.6-3,2.4-4.7c0.9-1.5,1.3-3.2,1.3-4.8h-3.7l-8.2,3.4l-4.9-6.6v-3.5l2.3-1.2l1.3-2.2l1.3-1.7l4.5-0.9
		V29l4.9-0.5v-1.2l2-0.7c0.3-1.4,0.9-2.5,1.6-3.4c0.7-0.9,1-1.8,1-3c0-1.1,0-2.2,0-3.6c0-1.4,0.4-2.5,1.2-3.5h6.2l1.8,1.4l3,9.4
		l2.5,1.3c0.4,1,0.9,1.7,1.3,2.4c0.3,0.5,0.5,1.4,0.5,2.6s0.1,2.1,0.3,2.9c0.2,1,0.3,1.8,0.3,2.6l-5,0.8l-0.5,9.8l1.2,4.1l-1.2,5.1
		H129c-0.4,3.6-0.7,7.1-0.7,10.5s0,7.2,0,11c0,3.8-0.1,7.5-0.3,11s-0.5,7.1-1,10.3l-2.4,0.8C124.2,98.1,123.6,97.2,123.1,96.1z
		 M183.3,91.4l-1.8-0.7l-8.2-13.8h-0.5v-1.4l-2-1.3l-1.2-2.8l-2-1.2h-1.2l-1.2,0.7v1.3l1.2,3.4h0.7v1.4h-1.3v2.4l-1.2,1.4h-0.8v-0.7
		h-1.1l-1.3,2.6l-3,1.4h0.4v-1.4h-1.1l-6.2,5.4h-1.3v1.2l-5.1,5.2h-2.4c-0.9-0.4-1.3-1.1-1.3-2c0-0.8-0.2-1.4-0.7-2.2
		s-0.5-1.5-0.5-2.4s0-1.6,0-2.6c0.8-2.2,1.8-4,3.2-5.9c1.2-1.8,2.1-3.8,2.7-6.1c0.7-2.2,1-4.6,1-7c0-2.5,0-4.9,0-7.5l-1.3-6.6
		l1.3-3.3c-0.3-0.9-0.7-1.8-0.9-3c-0.3-1.1-0.4-2.3-0.4-3.7c0-1.3-0.1-2.4-0.3-3.4c-0.2-0.9-0.3-2-0.3-3.3l0.7-2.6h-1.2v-1.2h1.2
		v-2.2l2-1.3c0-0.8,0-1.5,0-2.3c0-0.7,0.1-1.3,0.3-2c0.2-0.7,0.5-1.3,1-2.1c0.3-0.8,0.4-1.5,0.4-2.3c1-0.4,1.7-1,2.4-1.6
		c0.5-0.7,1.3-0.9,2.1-0.7c0.9,0.2,1.7,0.2,2.6,0c0.8-0.2,1.6-0.3,2.3-0.3l16.3,2.6l2,2.1v1.3h1.2l1.4,7.4c-1,1.6-1.5,3.5-1.7,5.5
		c-0.2,2-0.5,4-0.9,5.9c-0.4,2-0.9,3.8-1.5,5.5c-0.7,1.8-1.4,3.6-2.3,5.3l-1.8,0.8l-0.7-0.8l-5,1.4v2c0.4,0.5,0.9,1,1.3,1.4
		c0.3,0.4,0.9,0.7,1.5,0.7s1.3,0,2,0c0.5,0,1.1,0,1.5,0l7.6-3.4l0.5-1.3l2.5-0.8v1.4h2.4l3.8,4l0.5,3.9l-3,1.8
		c-0.5-0.3-0.9-0.8-1.3-1.2s-1-0.7-1.5-0.7c-0.5,0-1.2,0-1.8,0s-1.1,0-1.5,0h0.7v-1.4h-1.8l-5.1,1.4l-2.5-0.7v-1.5H169v0.8
		c1.2,1.8,2.5,3.3,3.7,4.7c1.3,1.4,2.6,2.8,3.9,4.2c1.1,1.6,2.5,2.9,4,4c1.4,1.2,2.9,2.2,4.6,3.2c1.6,0.8,3.4,1.5,5,2.2
		c1.6,0.7,3.3,1.4,4.7,2.3c1.5,0.9,3.2,1.5,4.8,2c1.6,0.5,3.6,0.5,5.7,0.1l3-1.3l0.7,1.3l-0.7,2.6h2v2.1l-3.2,3.3
		c-1.2,1.3-2.7,2.2-4.3,2.6c-1.7,0.3-3.6,0.7-5.3,0.9c-2,0.2-3.7,0.4-5.4,0.8c-1.7,0.2-3.5,0.3-5.5,0.3L183.3,91.4z M165.3,70.2
		l0.5-2.1h-0.5l-5.8-9.8h-1.1V57h-1.3c-1.6,1.3-2.6,2.7-2.7,4.5c-0.2,1.8-0.5,3.5-0.9,5.3c-0.5,1.7-0.9,3.6-1.1,5.4
		c-0.2,1.7-0.3,3.5-0.3,5.3h1.3l3.7-2.1L165.3,70.2z M168.3,47.8l1.3-5.3l-2.5-2.1v-1.2h-1.8l-2.5,0.7l-1.8-0.7l-4.6,2.5l-1.1,9.2
		h2.5l5.4-1.8L168.3,47.8z M169.6,32.3l-6.4-1.7c-0.2,0.4-0.8,0.8-1.3,1c-0.7,0.2-1.3,0.3-2,0.3c-0.8,0-1.4,0-1.8,0
		c-0.7,0-1.4,0-2.2,0v3.3h9.4l4.4-0.7V32.3z"/>
	<path d="M283.6,94.1v-0.7h-0.7v-0.5h-0.8l-2.8-2.5c-1.4-1.6-2.9-3.5-4.2-5.4c-1.4-2-2.8-3.8-3.9-5.8c-1.3-1.8-2.8-3.7-4.4-5.4
		c-1.6-1.6-3.7-2.9-6-3.8l-5.8,12.2l-4.2,2v0.5l-4.2,1.3l-0.8,2.5v-0.5h-2l-0.8,3.2l-2.9,0.7v0.7h-4.2v0.5h-2.1v0.5h-3.5
		c-0.5-0.3-1.1-0.7-1.8-0.9c-0.8-0.1-1.2-0.4-1.4-1c-0.3-0.4-0.4-0.9-0.4-1.5c0-0.7,0-1.2,0-1.6c1-0.9,2.2-1.4,3.6-1.6
		c1.3-0.2,2.8-0.3,4.4-0.5c1.3-0.2,2.7-0.5,3.9-1c1.2-0.4,2.4-0.9,3.9-1.2l4.9-2.6l2.7-3.3h1.5c0.5-1.2,1.1-2.4,1.8-3.5
		c0.7-1.1,1.2-2.2,1.7-3.5c0.4-1.3,0.8-2.6,1.1-3.8c0.2-1.3,0.3-2.8,0.3-4.6l-3.6-0.5v0.5c-1,0-2,0.1-3.2,0.3
		c-1.1,0.2-2.3,0.3-3.5,0.3s-2.3,0.4-3.3,1.2c-1,1-2.2,1.2-3.5,0.8v0.7c-2,0.4-3.8,1.1-5.3,2c-1.7,0.8-3.5,1.4-5.4,1.8
		c-2,0.4-3.6,1.3-5,2.6c-1.4,1.2-3,2.1-4.9,2.5l-1.4-6.5c2-2.5,4.6-4.1,8.2-4.7c3.5-0.7,6.7-1.5,9.8-2.6c3.2-1.1,6.5-1.8,10-2.5
		c3.5-0.5,7.1-1.1,10.3-1.6l1.5-4.5L263,52l2.8,1.3l1.4,3.2c4.2,0,8.5,0.2,12.8,0.7c4.2,0.5,8.3,1.2,12,2s7.6,1.6,11.7,2.5
		c4.1,0.9,8.3,1.3,12.6,1.3v1.2l-1.5,3.9l-7.9,0.5V70h-5v-1.4h-4.8v-1.7h-2.9v-1.3l-3.6-0.8v1.4h-1.4v-0.7h1.4v-1.4l-7.7-0.5v-0.7
		l-15.7-0.5v1.2c1.3,1.3,2.7,2.6,4.2,3.9c1.3,1.2,2.6,2.6,3.6,4.1c1,1.4,2.2,2.7,3.6,3.8c1.4,1.1,3,2.1,4.9,2.8
		c2.4,0.4,4.5,1.1,6.2,2c1.5,0.9,3.4,1.6,5.1,2.2c1.8,0.7,4,1,6.4,1c2.3,0,4.7,0,7.1,0l6.5-2.5v6.3l-5.9,8.9l-11.3,2.6L283.6,94.1z
		 M234.6,51.4l5-5.1c1.8,0.4,3.6,0.3,4.9-0.3c1.4-0.5,2.8-1.2,4.2-1.8c1.3-0.7,2.9-1.2,4.7-1.7c1.5-0.4,2.6-1.2,3.2-2.4l-5-0.7v1.3
		l-12,3.2l-0.8-2.1l3.6-4.9l14.1-3.4v-3.2h-2.2l-13.4,3.8l-0.8-6.3l1.3-2.6l7.9-1.2v-1.3l-1.4-2.6h-1.5l-1.3-7l4.9-1.4l5,3.3v4.5
		l-1.4,3.3h6.5l10.4-0.7v-2l-2.1-0.7v-2.5l2.1-7.6l4.4-0.8l4.9,3.2v3.3l-3.5,5.8h-0.8V22l8.6,2v3.8l-0.7,1.2h-5l-12.8-1.2l-2.2,0.5
		l-0.7,4.5c1.8,0,3.7,0,5.2,0c1.6,0,3.5,0,5.4,0s3.7,0.1,5.3,0.3c1.6,0.2,3.2,0.5,4.7,1v1.4l-1.5,2.4h-12.1l-1.4-0.7l-5.7,0.7v3.3
		c1.4,1.7,3.2,2.5,4.9,2.3c1.8-0.2,3.8-0.3,5.8-0.3s3.8,0.1,5.8,0.3c1.7,0.2,3.7,0.5,5.5,1v4.5h-7.8l-3.5-0.7l-0.8,0.7l-9.2-0.7
		c-2.2,0.4-4.6,0.8-7,1c-2.5,0.2-4.9,0.7-7.3,1.2c-2.3,0.7-4.6,1.3-6.6,2c-2.2,0.7-4.3,1.4-6.7,2.3L234.6,51.4z M243.9,62.9
		l-0.8,0.7l0.8,0.5l0.7-0.5L243.9,62.9z M244.5,83.3l-0.7,0.8l0.7,0.5l0.7-0.5L244.5,83.3z M246.6,62.4l-0.8,0.5l0.8,0.7l0.8-0.7
		L246.6,62.4z M247.4,82.1l-0.8,1.2h0.8l0.8-0.7L247.4,82.1z M248.1,62.4l-0.8,0.5l0.8,0.7l0.8-0.7L248.1,62.4z M248.9,61.7
		l-0.8,0.7l0.8,0.5l0.5-0.5L248.9,61.7z M248.9,80.8l-0.8,0.7l0.8,0.7l0.5-0.7L248.9,80.8z M249.4,60.3l-0.5,1.4h0.5l0.7-0.8
		L249.4,60.3z M254.4,78.9l-0.7,0.7l0.7,0.7l0.7-0.7L254.4,78.9z M255.1,73.8l-0.7,1.3h0.7l0.8-0.7L255.1,73.8z M255.8,75.1
		l-0.8,0.5l0.8,0.8l0.8-0.8L255.8,75.1z M257.4,74.4l-0.8,0.7l0.8,0.5l0.8-0.5L257.4,74.4z M258.1,73.8l-0.8,0.7l0.8,0.7l0.7-0.7
		L258.1,73.8z M259.3,47.6l-0.5,1.3h0.5l0.8-0.7L259.3,47.6z M267.9,18.7l-0.7,0.7l0.7,0.7l0.7-0.7L267.9,18.7z M275.8,47.6
		l-0.7,0.7l0.7,0.7l0.8-0.7L275.8,47.6z M299.1,67.4l-0.7,0.7l0.7,0.5l0.8-0.5L299.1,67.4z M304.8,68.6l-0.7,0.8l0.7,0.7l0.9-0.7
		L304.8,68.6z"/>
	<path d="M351.2,92.5c-1.7-2-2.7-4.1-3.2-6.5c-0.5-2.4-1-4.6-1.4-6.9c-0.4-2.2-1.3-4.4-2.6-6.5c-1.4-2.2-2.5-4.1-3.4-6.2
		c0.9-2.4,2.6-3.6,5-3.8c2.5-0.2,4.7-0.7,7-1.3c2.1-0.5,4.4-1,6.7-1.2c2.4-0.1,4.8-0.2,7.5-0.2l17.6,1.7v-1.2l-4-4.8h-1.2V54l-2-1.2
		l-4.6-4.1v-1.2l-1.8-0.8v-1.1l-3.5-0.5l-0.5,3.6l1.2,8.3l-5.8,0.7v-1.3l-2-0.7l-2.1-5.2l1.4-5.3h-2l-5.2,2.4v1.2l-7.2,5.3h-1.2
		l-1.5,1.6l-3.8,6l-2.7,1.8v1.1h-1.2c0,0.8-0.2,1.5-0.7,2.2c-0.4,0.7-0.9,1.2-1.3,1.5c-0.4,0.3-1,0.7-1.6,1c-0.8,0.4-1,1.1-1,1.8
		l-7.2,1.3l-1.3-0.5l-2-2v-5.3h-0.7V64c1.4,0,2.6,0,3.9,0s2.5-0.2,3.6-0.9c1.1-0.5,2.2-1.3,3.3-2.1c1-0.8,2.2-1.2,3.6-1.2v-1.1
		l5.9-3.2l1.2-1.6l4-2.5l0.7-1.6h1.3l0.7-1.8h1.4l2.5-4.1l2-0.5l0.7-3h-2.6c-1.3,0.4-2.6,1-4.1,1.4c-1.6,0.7-2.9,1.4-4.3,2.2
		c-1.4,0.8-2.6,1.7-3.6,2.6c-1.1,1-2.5,1.3-4.2,1c-0.4-0.9-0.9-1.6-1.3-2.2c-0.4-0.5-0.8-1.2-1-1.7s-0.3-1.3-0.3-2.2
		c0-0.7,0-1.5,0-2.3l4.5-3.5l19.7-4.8l0.7-1.8h-0.7v-2.3h1.3v-1.2c-0.4-0.8-1-1.2-1.6-1.2s-1.3,0-2,0c-0.8,0-1.3,0-2,0
		s-1.2-0.2-1.6-0.7v-1.1h-1.3v-1.8l6.5-2.3l0.7-1.3l3.3-1.2l1.3-2.3c0.4-0.3,1-0.7,1.5-0.9c0.7-0.2,1.2-0.5,1.7-1
		c0.4-0.4,1-0.7,1.6-0.7s1.3,0,2.2,0c0.9,0.4,1.8,1,3,1.5c1.1,0.7,2.2,1.3,3.4,1.7c1.1,0.7,2,1.5,2.8,2.5s1.5,1.8,2,2.6v2.4l-13,2.4
		v1.2l2.5,1.2l2.7,4.1c2.2,0.8,4.5,1.3,6.9,1.4c2.4,0.2,4.8,0.4,7.2,0.7c2.4,0.2,4.6,0.7,6.9,1.2c2.1,0.5,4.4,1.3,6.5,2.1v2.9
		l-0.5,3h-1.5l-20.8-3v1.2l2,3.6h1.3l3.9,4.1l2.5,2.4v1.1c3.2,0.9,6.2,1.7,9.2,2.5c3.2,0.8,6.1,1.5,9.1,2.3c3.2,0.9,6.1,1.6,9.1,2.2
		c3,0.5,6.2,0.9,9.7,0.9l4-0.5l1.3,0.5v5.2l-3.2,4.1c-2.3,0.4-4.5,0.9-6.6,1.2c-2.2,0.4-4.2,0.9-6.2,1.3c-2,0.4-4.1,0.7-6.5,0.7
		c-2.5,0-4.7,0-6.9,0l-4-3.6v-0.5h-1.2c0,1.8-0.3,3.6-1,5.2c-0.8,1.5-1.4,3.2-2.1,4.7c-0.7,1.6-1.1,3.3-1.2,5
		c-0.2,1.8-0.3,3.6-0.3,5.1l0.5,3c-0.3,0.3-0.9,0.7-1.5,1.1c-0.7,0.4-1.3,0.8-2,0.9c-0.8,0.2-1.4,0.3-2.3,0.3c-0.9,0-1.7,0-2.6,0
		l-0.8-1.8c-1.2-0.2-2.6-0.7-4.1-1.1c-1.5-0.3-3-0.5-4.7-0.5c-1.5,0-3,0-4.6,0c-1.4,0-3,0-4.8,0l-5.9,1.6v1.3l-3.3,0.5L351.2,92.5z
		 M378.6,72.4l-3.9-5.3l-4.5-0.7l-5.3,1.8l-12.4-0.5l-1.3,3.4c1.8,1.6,3.8,2.4,6.3,2.4c2.3,0,4.7,0,7.1,0c2.3,0,4.7,0,7.1,0
		c2.5,0,4.7,0.4,7,1.2V72.4z M377.3,83l1.3-5.4L361,77.1l-6.5,1.1V83l2,2.3h11.6l6.6-1.1L377.3,83z"/>
</g>
</svg>
